<svg width="18" height="18" viewBox="0 0 18 18" fill="none" xmlns="http://www.w3.org/2000/svg">
<path d="M13.9998 0.666748L17.3332 4.00008M0.666504 17.3334L1.73017 13.4333C1.79957 13.1789 1.83426 13.0516 1.88753 12.933C1.93482 12.8276 1.99294 12.7275 2.06093 12.6342C2.13752 12.5291 2.23076 12.4358 2.41726 12.2493L11.0284 3.63815C11.1934 3.47315 11.2759 3.39064 11.3711 3.35973C11.4548 3.33254 11.5449 3.33254 11.6286 3.35973C11.7237 3.39064 11.8062 3.47315 11.9712 3.63815L14.3618 6.02868C14.5268 6.19368 14.6093 6.27619 14.6402 6.37132C14.6674 6.45501 14.6674 6.54515 14.6402 6.62884C14.6093 6.72398 14.5268 6.80648 14.3618 6.97149L5.75059 15.5827C5.5641 15.7692 5.47085 15.8624 5.36574 15.939C5.27241 16.007 5.17227 16.0651 5.06693 16.1124C4.94829 16.1657 4.82107 16.2004 4.56662 16.2697L0.666504 17.3334Z" stroke="#FDFDFD" stroke-width="1.10833" stroke-linecap="round" stroke-linejoin="round"/>
</svg>
