<svg width="14" height="16" viewBox="0 0 14 16" fill="none" xmlns="http://www.w3.org/2000/svg">
<path d="M13 6.66659H1M9.66667 1.33325V3.99992M4.33333 1.33325V3.99992M4.2 14.6666H9.8C10.9201 14.6666 11.4802 14.6666 11.908 14.4486C12.2843 14.2569 12.5903 13.9509 12.782 13.5746C13 13.1467 13 12.5867 13 11.4666V5.86659C13 4.74648 13 4.18643 12.782 3.7586C12.5903 3.38228 12.2843 3.07632 11.908 2.88457C11.4802 2.66659 10.9201 2.66659 9.8 2.66659H4.2C3.0799 2.66659 2.51984 2.66659 2.09202 2.88457C1.71569 3.07632 1.40973 3.38228 1.21799 3.7586C1 4.18643 1 4.74648 1 5.86659V11.4666C1 12.5867 1 13.1467 1.21799 13.5746C1.40973 13.9509 1.71569 14.2569 2.09202 14.4486C2.51984 14.6666 3.0799 14.6666 4.2 14.6666Z" stroke="#FDFDFD" stroke-width="1.33" stroke-linecap="round" stroke-linejoin="round"/>
</svg>
